<svg xmlns="http://www.w3.org/2000/svg" width="13.922" height="16.706" viewBox="0 0 13.922 16.706">
  <path id="garbage-mycoupons" d="M13.834,16.706H4.088A1.393,1.393,0,0,1,2.7,15.314V4.177h12.53V15.314a1.393,1.393,0,0,1-1.392,1.392M7.569,6.961a.7.7,0,1,0-1.392,0v6.265a.7.7,0,1,0,1.392,0Zm4.177,0a.7.7,0,1,0-1.392,0v6.265a.7.7,0,1,0,1.392,0Zm4.177-3.481H2V2.088H6.177V1.044A1.045,1.045,0,0,1,7.221,0H10.7a1.045,1.045,0,0,1,1.044,1.044V2.088h4.177ZM7.569,2.088h2.784v-.7H7.569Z" transform="translate(-2)" fill="#fff" fill-rule="evenodd"/>
</svg>
