<svg xmlns="http://www.w3.org/2000/svg" width="33.731" height="43.59" viewBox="0 0 33.731 43.59">
  <g id="flame" transform="translate(-57.902 0)">
    <path id="Path_139" data-name="Path 139" d="M86.265,14.392A16.862,16.862,0,1,1,59.9,18.762a.621.621,0,0,1,1-.124c.842.92,2.542,2.488,4.4,2.584,0,0-2.164-15.089,12.305-21.168a.622.622,0,0,1,.795.861c-.98,1.863-2.261,5.164-1.138,8.226,1.361,3.713,5.48,3.355,5.573,10.75a11.968,11.968,0,0,0,2.389-5.173.623.623,0,0,1,1.033-.327Z" transform="translate(0 -0.003)" fill="#fd8087"/>
    <path id="Path_140" data-name="Path 140" d="M76.99,241.536a17.144,17.144,0,0,1-2.223.145A16.868,16.868,0,0,1,59.9,216.85a.622.622,0,0,1,1.006-.122,9.728,9.728,0,0,0,2.559,2.042A16.877,16.877,0,0,0,76.99,241.536Z" transform="translate(0 -198.091)" fill="#fe646f"/>
    <path id="Path_141" data-name="Path 141" d="M156.866.915a15.964,15.964,0,0,0-.718,1.562c-9.629,6.932-7.935,18.743-7.935,18.743-1.977-.1-3.771-1.864-4.55-2.746.13-4.64,1.787-13.96,12.411-18.422a.623.623,0,0,1,.793.864Z" transform="translate(-78.459 0)" fill="#fe646f"/>
    <path id="Path_142" data-name="Path 142" d="M174.921,266.6a8.319,8.319,0,0,1-16.638,0v0a14.485,14.485,0,0,1,1.175-5.633.624.624,0,0,1,.753-.367l2.869.839a9.844,9.844,0,0,1,5.434-8.51.622.622,0,0,1,.909.46,13.864,13.864,0,0,0,1.834,5.309c.843,1.375,1.64,2.554,2.562,3.873A7.111,7.111,0,0,1,174.921,266.6Z" transform="translate(-91.834 -231.321)" fill="#fef48b"/>
    <g id="Group_111" data-name="Group 111" transform="translate(66.448 21.528)">
      <path id="Path_143" data-name="Path 143" d="M167.936,357.768a8.324,8.324,0,0,1-9.652-8.207v0a14.48,14.48,0,0,1,1.174-5.633.624.624,0,0,1,.753-.367l1.846.54a14.337,14.337,0,0,0-1.106,5.46v0A8.319,8.319,0,0,0,167.936,357.768Z" transform="translate(-158.283 -335.813)" fill="#fef056"/>
      <path id="Path_144" data-name="Path 144" d="M221.538,254.017a9.444,9.444,0,0,0-3.778,7.427l-2.625-.767a9.915,9.915,0,0,1,5.389-7.741.623.623,0,0,1,.912.461q.046.312.1.621Z" transform="translate(-210.296 -252.86)" fill="#fef056"/>
    </g>
  </g>
</svg>
