<svg xmlns="http://www.w3.org/2000/svg" width="33" height="33" viewBox="0 0 33 33">
  <path id="iconmonstr-github-3" d="M26.125,0H6.875A6.875,6.875,0,0,0,0,6.875v19.25A6.875,6.875,0,0,0,6.875,33h19.25A6.875,6.875,0,0,0,33,26.125V6.875A6.875,6.875,0,0,0,26.125,0ZM19.984,26.936c-.55.107-.734-.235-.734-.528V23.39a2.621,2.621,0,0,0-.756-2.036c2.45-.275,5.024-1.2,5.024-5.427a4.254,4.254,0,0,0-1.132-2.952,3.961,3.961,0,0,0-.111-2.911s-.923-.3-3.025,1.127a10.406,10.406,0,0,0-5.51,0c-2.1-1.423-3.025-1.127-3.025-1.127a3.959,3.959,0,0,0-.1,2.91,4.251,4.251,0,0,0-1.128,2.952c0,4.213,2.567,5.158,5.012,5.437a2.338,2.338,0,0,0-.7,1.471,2.338,2.338,0,0,1-3.213-.916A2.314,2.314,0,0,0,8.9,20.783s-1.072-.014-.076.67a2.912,2.912,0,0,1,1.222,1.609s.644,1.964,3.7,1.3V26.4c0,.29-.177.631-.726.529a11,11,0,1,1,6.96,0Z" fill="#fff"/>
</svg>
