<svg xmlns="http://www.w3.org/2000/svg" width="33" height="33" viewBox="0 0 33 33">
  <path id="iconmonstr-linkedin-3_1_" data-name="iconmonstr-linkedin-3 (1)" d="M26.125,0H6.875A6.876,6.876,0,0,0,0,6.875v19.25A6.876,6.876,0,0,0,6.875,33h19.25A6.875,6.875,0,0,0,33,26.125V6.875A6.875,6.875,0,0,0,26.125,0ZM11,26.125H6.875V11H11ZM8.938,9.257a2.426,2.426,0,1,1,2.406-2.425A2.417,2.417,0,0,1,8.938,9.257ZM27.5,26.125H23.375V18.42c0-4.631-5.5-4.28-5.5,0v7.705H13.75V11h4.125v2.427c1.92-3.556,9.625-3.818,9.625,3.4Z" fill="#fff"/>
</svg>
