<svg xmlns="http://www.w3.org/2000/svg" width="23.233" height="25.345" viewBox="0 0 23.233 25.345">
  <g id="login" transform="translate(-21.333)">
    <g id="Group_120" data-name="Group 120" transform="translate(21.333)">
      <g id="Group_119" data-name="Group 119" transform="translate(0)">
        <path id="Path_145" data-name="Path 145" d="M28.879,155.84a.528.528,0,0,0,.747.747l3.168-3.168a.527.527,0,0,0,.114-.172.52.52,0,0,0,.023-.114.5.5,0,0,0,.018-.088.5.5,0,0,0-.023-.113.483.483,0,0,0-.018-.087.554.554,0,0,0-.117-.176L29.626,149.5a.528.528,0,0,0-.747.747l2.265,2.266H21.861a.528.528,0,1,0,0,1.056h9.286Z" transform="translate(-21.333 -141.956)" fill="#fff"/>
        <path id="Path_146" data-name="Path 146" d="M143.673,0a2.243,2.243,0,0,0-.24.024.518.518,0,0,0-.12-.024H130.64A2.644,2.644,0,0,0,128,2.64V7.92a.528.528,0,1,0,1.056,0V2.64a1.586,1.586,0,0,1,1.584-1.584h10.1l-3.965,1.7a2.279,2.279,0,0,0-1.382,2.1V21.121H130.64a2.2,2.2,0,0,1-1.562-.747l-.022-6.12a.528.528,0,0,0-.528-.526h0a.528.528,0,0,0-.526.53l.024,6.154a.992.992,0,0,0,.331.739,3.254,3.254,0,0,0,2.285,1.025h4.752v.888a2.281,2.281,0,0,0,3.178,2.1l6-2.571a2.279,2.279,0,0,0,1.382-2.1V2.28A2.283,2.283,0,0,0,143.673,0ZM144.9,20.494a1.222,1.222,0,0,1-.742,1.125l-6,2.571a1.2,1.2,0,0,1-.482.1,1.225,1.225,0,0,1-1.224-1.224V4.851a1.222,1.222,0,0,1,.742-1.125l6-2.571a1.2,1.2,0,0,1,.482-.1A1.225,1.225,0,0,1,144.9,2.28Z" transform="translate(-122.72)" fill="#fff"/>
        <path id="Path_147" data-name="Path 147" d="M320.528,234.667a.528.528,0,0,0-.528.528v2.112a.528.528,0,1,0,1.056,0v-2.112A.528.528,0,0,0,320.528,234.667Z" transform="translate(-305.215 -223.051)" fill="#fff"/>
      </g>
    </g>
  </g>
</svg>
