<svg id="Group_72" data-name="Group 72" xmlns="http://www.w3.org/2000/svg" width="138.943" height="138.943" viewBox="0 0 138.943 138.943">
  <path id="iconmonstr-user-20" d="M69.472,0a69.472,69.472,0,1,0,69.472,69.472A69.475,69.475,0,0,0,69.472,0Zm44.884,105.973c-1.511-3.393-4.568-5.737-10.832-7.185C90.25,95.726,77.889,93.04,83.881,81.739c18.207-34.4,4.822-52.793-14.41-52.793-19.614,0-32.675,19.1-14.41,52.793,6.171,11.37-6.646,14.051-19.643,17.05C29.143,100.236,26.11,102.6,24.61,106a57.893,57.893,0,1,1,89.746-.029Z" fill="#312727"/>
</svg>
