<svg xmlns="http://www.w3.org/2000/svg" width="17.389" height="10.143" viewBox="0 0 17.389 10.143">
  <path id="preview-mycoupons" d="M8.705,6.449a9.454,9.454,0,0,1,6.886,3.359c-1.015,1.331-3.415,3.886-6.886,3.886-3.2,0-5.746-2.562-6.867-3.918A9.546,9.546,0,0,1,8.705,6.449ZM8.705,5C3.221,5,0,9.746,0,9.746s3.5,5.4,8.705,5.4c5.6,0,8.684-5.4,8.684-5.4S14.28,5,8.705,5ZM8.694,7.174a2.9,2.9,0,1,0,2.9,2.9A2.9,2.9,0,0,0,8.694,7.174Zm0,2.9a1.047,1.047,0,1,1,0-1.481A1.048,1.048,0,0,1,8.691,10.071Z" transform="translate(0 -5)" fill="#fff"/>
</svg>
