<svg xmlns="http://www.w3.org/2000/svg" xmlns:xlink="http://www.w3.org/1999/xlink" width="872.621" height="41.255" viewBox="0 0 872.621 41.255">
  <defs>
    <clipPath id="clip-path">
      <rect width="872.621" height="41.255" fill="none"/>
    </clipPath>
  </defs>
  <g id="Repeat_Grid_8" data-name="Repeat Grid 8" clip-path="url(#clip-path)">
    <g id="Group_95" data-name="Group 95" transform="translate(3161 -4699)">
      <g id="_35797" data-name="35797" transform="translate(-2983.863 4700.304)">
        <path id="Path_136" data-name="Path 136" d="M.645-1279.917a.922.922,0,0,0-.543.427c-.115.228-.107-.075-.107,4.626,0,4.735-.008,4.415.115,4.63.077.134,14.536,14.591,14.669,14.668a.867.867,0,0,0,.834,0c.142-.075,8.685-8.618,8.76-8.76a.867.867,0,0,0,0-.834c-.077-.134-14.534-14.593-14.668-14.669-.214-.122.109-.115-4.649-.113C1.707-1279.941.712-1279.936.645-1279.917Zm4.7,3.4a1.674,1.674,0,0,1,1.236.924,1.493,1.493,0,0,1,.166.731,1.6,1.6,0,0,1-.505,1.205,1.587,1.587,0,0,1-1.171.471,1.493,1.493,0,0,1-.731-.167,1.675,1.675,0,0,1-.763-2.269A1.711,1.711,0,0,1,4.7-1276.5,1.884,1.884,0,0,1,5.349-1276.517Z" transform="translate(0.006 1279.942)" fill="rgba(164,164,164,0.13)"/>
      </g>
      <g id="_35797-2" data-name="35797" transform="translate(-3053.607 4702.155)">
        <path id="Path_136-2" data-name="Path 136" d="M.645-1279.917a.922.922,0,0,0-.543.427c-.115.228-.107-.075-.107,4.626,0,4.735-.008,4.415.115,4.63.077.134,14.536,14.591,14.669,14.668a.867.867,0,0,0,.834,0c.142-.075,8.685-8.618,8.76-8.76a.867.867,0,0,0,0-.834c-.077-.134-14.534-14.593-14.668-14.669-.214-.122.109-.115-4.649-.113C1.707-1279.941.712-1279.936.645-1279.917Zm4.7,3.4a1.674,1.674,0,0,1,1.236.924,1.493,1.493,0,0,1,.166.731,1.6,1.6,0,0,1-.505,1.205,1.587,1.587,0,0,1-1.171.471,1.493,1.493,0,0,1-.731-.167,1.675,1.675,0,0,1-.763-2.269A1.711,1.711,0,0,1,4.7-1276.5,1.884,1.884,0,0,1,5.349-1276.517Z" transform="translate(0.006 1279.942)" fill="rgba(164,164,164,0.13)"/>
      </g>
      <g id="_35797-3" data-name="35797" transform="translate(-3125.202 4702.772)">
        <path id="Path_136-3" data-name="Path 136" d="M.645-1279.917a.922.922,0,0,0-.543.427c-.115.228-.107-.075-.107,4.626,0,4.735-.008,4.415.115,4.63.077.134,14.536,14.591,14.669,14.668a.867.867,0,0,0,.834,0c.142-.075,8.685-8.618,8.76-8.76a.867.867,0,0,0,0-.834c-.077-.134-14.534-14.593-14.668-14.669-.214-.122.109-.115-4.649-.113C1.707-1279.941.712-1279.936.645-1279.917Zm4.7,3.4a1.674,1.674,0,0,1,1.236.924,1.493,1.493,0,0,1,.166.731,1.6,1.6,0,0,1-.505,1.205,1.587,1.587,0,0,1-1.171.471,1.493,1.493,0,0,1-.731-.167,1.675,1.675,0,0,1-.763-2.269A1.711,1.711,0,0,1,4.7-1276.5,1.884,1.884,0,0,1,5.349-1276.517Z" transform="translate(0.006 1279.942)" fill="rgba(164,164,164,0.13)"/>
      </g>
      <path id="present" d="M11.315,24.688H2.057V12.344h9.258Zm0-18.516H0v4.115H11.315Zm2.057,18.516h9.258V12.344H13.373Zm0-18.516v4.115H24.688V6.172ZM17.867,0c-3.031,0-4.8,3.577-5.523,5.143h5.5A2.575,2.575,0,1,0,17.867,0Zm-.819,3.725h-2.1c.76-1.153,1.48-2.022,2.409-2.022C18.561,1.7,18.619,3.725,17.048,3.725ZM6.846,5.143h5.5C11.626,3.577,9.853,0,6.821,0a2.575,2.575,0,1,0,.025,5.143ZM7.332,1.7c.929,0,1.649.869,2.409,2.022H7.64C6.069,3.725,6.127,1.7,7.332,1.7Z" transform="translate(-3019.661 4699)" fill="rgba(164,164,164,0.13)"/>
      <path id="present-2" data-name="present" d="M11.315,24.688H2.057V12.344h9.258Zm0-18.516H0v4.115H11.315Zm2.057,18.516h9.258V12.344H13.373Zm0-18.516v4.115H24.688V6.172ZM17.867,0c-3.031,0-4.8,3.577-5.523,5.143h5.5A2.575,2.575,0,1,0,17.867,0Zm-.819,3.725h-2.1c.76-1.153,1.48-2.022,2.409-2.022C18.561,1.7,18.619,3.725,17.048,3.725ZM6.846,5.143h5.5C11.626,3.577,9.853,0,6.821,0a2.575,2.575,0,1,0,.025,5.143ZM7.332,1.7c.929,0,1.649.869,2.409,2.022H7.64C6.069,3.725,6.127,1.7,7.332,1.7Z" transform="translate(-3089.405 4700.852)" fill="rgba(164,164,164,0.13)"/>
      <path id="present-3" data-name="present" d="M11.315,24.688H2.057V12.344h9.258Zm0-18.516H0v4.115H11.315Zm2.057,18.516h9.258V12.344H13.373Zm0-18.516v4.115H24.688V6.172ZM17.867,0c-3.031,0-4.8,3.577-5.523,5.143h5.5A2.575,2.575,0,1,0,17.867,0Zm-.819,3.725h-2.1c.76-1.153,1.48-2.022,2.409-2.022C18.561,1.7,18.619,3.725,17.048,3.725ZM6.846,5.143h5.5C11.626,3.577,9.853,0,6.821,0a2.575,2.575,0,1,0,.025,5.143ZM7.332,1.7c.929,0,1.649.869,2.409,2.022H7.64C6.069,3.725,6.127,1.7,7.332,1.7Z" transform="translate(-3161 4701.469)" fill="rgba(164,164,164,0.13)"/>
    </g>
    <g id="Group_95-2" data-name="Group 95" transform="translate(3383 -4699)">
      <g id="_35797-4" data-name="35797" transform="translate(-2983.863 4700.304)">
        <path id="Path_136-4" data-name="Path 136" d="M.645-1279.917a.922.922,0,0,0-.543.427c-.115.228-.107-.075-.107,4.626,0,4.735-.008,4.415.115,4.63.077.134,14.536,14.591,14.669,14.668a.867.867,0,0,0,.834,0c.142-.075,8.685-8.618,8.76-8.76a.867.867,0,0,0,0-.834c-.077-.134-14.534-14.593-14.668-14.669-.214-.122.109-.115-4.649-.113C1.707-1279.941.712-1279.936.645-1279.917Zm4.7,3.4a1.674,1.674,0,0,1,1.236.924,1.493,1.493,0,0,1,.166.731,1.6,1.6,0,0,1-.505,1.205,1.587,1.587,0,0,1-1.171.471,1.493,1.493,0,0,1-.731-.167,1.675,1.675,0,0,1-.763-2.269A1.711,1.711,0,0,1,4.7-1276.5,1.884,1.884,0,0,1,5.349-1276.517Z" transform="translate(0.006 1279.942)" fill="rgba(164,164,164,0.13)"/>
      </g>
      <g id="_35797-5" data-name="35797" transform="translate(-3053.607 4702.155)">
        <path id="Path_136-5" data-name="Path 136" d="M.645-1279.917a.922.922,0,0,0-.543.427c-.115.228-.107-.075-.107,4.626,0,4.735-.008,4.415.115,4.63.077.134,14.536,14.591,14.669,14.668a.867.867,0,0,0,.834,0c.142-.075,8.685-8.618,8.76-8.76a.867.867,0,0,0,0-.834c-.077-.134-14.534-14.593-14.668-14.669-.214-.122.109-.115-4.649-.113C1.707-1279.941.712-1279.936.645-1279.917Zm4.7,3.4a1.674,1.674,0,0,1,1.236.924,1.493,1.493,0,0,1,.166.731,1.6,1.6,0,0,1-.505,1.205,1.587,1.587,0,0,1-1.171.471,1.493,1.493,0,0,1-.731-.167,1.675,1.675,0,0,1-.763-2.269A1.711,1.711,0,0,1,4.7-1276.5,1.884,1.884,0,0,1,5.349-1276.517Z" transform="translate(0.006 1279.942)" fill="rgba(164,164,164,0.13)"/>
      </g>
      <g id="_35797-6" data-name="35797" transform="translate(-3125.202 4702.772)">
        <path id="Path_136-6" data-name="Path 136" d="M.645-1279.917a.922.922,0,0,0-.543.427c-.115.228-.107-.075-.107,4.626,0,4.735-.008,4.415.115,4.63.077.134,14.536,14.591,14.669,14.668a.867.867,0,0,0,.834,0c.142-.075,8.685-8.618,8.76-8.76a.867.867,0,0,0,0-.834c-.077-.134-14.534-14.593-14.668-14.669-.214-.122.109-.115-4.649-.113C1.707-1279.941.712-1279.936.645-1279.917Zm4.7,3.4a1.674,1.674,0,0,1,1.236.924,1.493,1.493,0,0,1,.166.731,1.6,1.6,0,0,1-.505,1.205,1.587,1.587,0,0,1-1.171.471,1.493,1.493,0,0,1-.731-.167,1.675,1.675,0,0,1-.763-2.269A1.711,1.711,0,0,1,4.7-1276.5,1.884,1.884,0,0,1,5.349-1276.517Z" transform="translate(0.006 1279.942)" fill="rgba(164,164,164,0.13)"/>
      </g>
      <path id="present-4" data-name="present" d="M11.315,24.688H2.057V12.344h9.258Zm0-18.516H0v4.115H11.315Zm2.057,18.516h9.258V12.344H13.373Zm0-18.516v4.115H24.688V6.172ZM17.867,0c-3.031,0-4.8,3.577-5.523,5.143h5.5A2.575,2.575,0,1,0,17.867,0Zm-.819,3.725h-2.1c.76-1.153,1.48-2.022,2.409-2.022C18.561,1.7,18.619,3.725,17.048,3.725ZM6.846,5.143h5.5C11.626,3.577,9.853,0,6.821,0a2.575,2.575,0,1,0,.025,5.143ZM7.332,1.7c.929,0,1.649.869,2.409,2.022H7.64C6.069,3.725,6.127,1.7,7.332,1.7Z" transform="translate(-3019.661 4699)" fill="rgba(164,164,164,0.13)"/>
      <path id="present-5" data-name="present" d="M11.315,24.688H2.057V12.344h9.258Zm0-18.516H0v4.115H11.315Zm2.057,18.516h9.258V12.344H13.373Zm0-18.516v4.115H24.688V6.172ZM17.867,0c-3.031,0-4.8,3.577-5.523,5.143h5.5A2.575,2.575,0,1,0,17.867,0Zm-.819,3.725h-2.1c.76-1.153,1.48-2.022,2.409-2.022C18.561,1.7,18.619,3.725,17.048,3.725ZM6.846,5.143h5.5C11.626,3.577,9.853,0,6.821,0a2.575,2.575,0,1,0,.025,5.143ZM7.332,1.7c.929,0,1.649.869,2.409,2.022H7.64C6.069,3.725,6.127,1.7,7.332,1.7Z" transform="translate(-3089.405 4700.852)" fill="rgba(164,164,164,0.13)"/>
      <path id="present-6" data-name="present" d="M11.315,24.688H2.057V12.344h9.258Zm0-18.516H0v4.115H11.315Zm2.057,18.516h9.258V12.344H13.373Zm0-18.516v4.115H24.688V6.172ZM17.867,0c-3.031,0-4.8,3.577-5.523,5.143h5.5A2.575,2.575,0,1,0,17.867,0Zm-.819,3.725h-2.1c.76-1.153,1.48-2.022,2.409-2.022C18.561,1.7,18.619,3.725,17.048,3.725ZM6.846,5.143h5.5C11.626,3.577,9.853,0,6.821,0a2.575,2.575,0,1,0,.025,5.143ZM7.332,1.7c.929,0,1.649.869,2.409,2.022H7.64C6.069,3.725,6.127,1.7,7.332,1.7Z" transform="translate(-3161 4701.469)" fill="rgba(164,164,164,0.13)"/>
    </g>
    <g id="Group_95-3" data-name="Group 95" transform="translate(3605 -4699)">
      <g id="_35797-7" data-name="35797" transform="translate(-2983.863 4700.304)">
        <path id="Path_136-7" data-name="Path 136" d="M.645-1279.917a.922.922,0,0,0-.543.427c-.115.228-.107-.075-.107,4.626,0,4.735-.008,4.415.115,4.63.077.134,14.536,14.591,14.669,14.668a.867.867,0,0,0,.834,0c.142-.075,8.685-8.618,8.76-8.76a.867.867,0,0,0,0-.834c-.077-.134-14.534-14.593-14.668-14.669-.214-.122.109-.115-4.649-.113C1.707-1279.941.712-1279.936.645-1279.917Zm4.7,3.4a1.674,1.674,0,0,1,1.236.924,1.493,1.493,0,0,1,.166.731,1.6,1.6,0,0,1-.505,1.205,1.587,1.587,0,0,1-1.171.471,1.493,1.493,0,0,1-.731-.167,1.675,1.675,0,0,1-.763-2.269A1.711,1.711,0,0,1,4.7-1276.5,1.884,1.884,0,0,1,5.349-1276.517Z" transform="translate(0.006 1279.942)" fill="rgba(164,164,164,0.13)"/>
      </g>
      <g id="_35797-8" data-name="35797" transform="translate(-3053.607 4702.155)">
        <path id="Path_136-8" data-name="Path 136" d="M.645-1279.917a.922.922,0,0,0-.543.427c-.115.228-.107-.075-.107,4.626,0,4.735-.008,4.415.115,4.63.077.134,14.536,14.591,14.669,14.668a.867.867,0,0,0,.834,0c.142-.075,8.685-8.618,8.76-8.76a.867.867,0,0,0,0-.834c-.077-.134-14.534-14.593-14.668-14.669-.214-.122.109-.115-4.649-.113C1.707-1279.941.712-1279.936.645-1279.917Zm4.7,3.4a1.674,1.674,0,0,1,1.236.924,1.493,1.493,0,0,1,.166.731,1.6,1.6,0,0,1-.505,1.205,1.587,1.587,0,0,1-1.171.471,1.493,1.493,0,0,1-.731-.167,1.675,1.675,0,0,1-.763-2.269A1.711,1.711,0,0,1,4.7-1276.5,1.884,1.884,0,0,1,5.349-1276.517Z" transform="translate(0.006 1279.942)" fill="rgba(164,164,164,0.13)"/>
      </g>
      <g id="_35797-9" data-name="35797" transform="translate(-3125.202 4702.772)">
        <path id="Path_136-9" data-name="Path 136" d="M.645-1279.917a.922.922,0,0,0-.543.427c-.115.228-.107-.075-.107,4.626,0,4.735-.008,4.415.115,4.63.077.134,14.536,14.591,14.669,14.668a.867.867,0,0,0,.834,0c.142-.075,8.685-8.618,8.76-8.76a.867.867,0,0,0,0-.834c-.077-.134-14.534-14.593-14.668-14.669-.214-.122.109-.115-4.649-.113C1.707-1279.941.712-1279.936.645-1279.917Zm4.7,3.4a1.674,1.674,0,0,1,1.236.924,1.493,1.493,0,0,1,.166.731,1.6,1.6,0,0,1-.505,1.205,1.587,1.587,0,0,1-1.171.471,1.493,1.493,0,0,1-.731-.167,1.675,1.675,0,0,1-.763-2.269A1.711,1.711,0,0,1,4.7-1276.5,1.884,1.884,0,0,1,5.349-1276.517Z" transform="translate(0.006 1279.942)" fill="rgba(164,164,164,0.13)"/>
      </g>
      <path id="present-7" data-name="present" d="M11.315,24.688H2.057V12.344h9.258Zm0-18.516H0v4.115H11.315Zm2.057,18.516h9.258V12.344H13.373Zm0-18.516v4.115H24.688V6.172ZM17.867,0c-3.031,0-4.8,3.577-5.523,5.143h5.5A2.575,2.575,0,1,0,17.867,0Zm-.819,3.725h-2.1c.76-1.153,1.48-2.022,2.409-2.022C18.561,1.7,18.619,3.725,17.048,3.725ZM6.846,5.143h5.5C11.626,3.577,9.853,0,6.821,0a2.575,2.575,0,1,0,.025,5.143ZM7.332,1.7c.929,0,1.649.869,2.409,2.022H7.64C6.069,3.725,6.127,1.7,7.332,1.7Z" transform="translate(-3019.661 4699)" fill="rgba(164,164,164,0.13)"/>
      <path id="present-8" data-name="present" d="M11.315,24.688H2.057V12.344h9.258Zm0-18.516H0v4.115H11.315Zm2.057,18.516h9.258V12.344H13.373Zm0-18.516v4.115H24.688V6.172ZM17.867,0c-3.031,0-4.8,3.577-5.523,5.143h5.5A2.575,2.575,0,1,0,17.867,0Zm-.819,3.725h-2.1c.76-1.153,1.48-2.022,2.409-2.022C18.561,1.7,18.619,3.725,17.048,3.725ZM6.846,5.143h5.5C11.626,3.577,9.853,0,6.821,0a2.575,2.575,0,1,0,.025,5.143ZM7.332,1.7c.929,0,1.649.869,2.409,2.022H7.64C6.069,3.725,6.127,1.7,7.332,1.7Z" transform="translate(-3089.405 4700.852)" fill="rgba(164,164,164,0.13)"/>
      <path id="present-9" data-name="present" d="M11.315,24.688H2.057V12.344h9.258Zm0-18.516H0v4.115H11.315Zm2.057,18.516h9.258V12.344H13.373Zm0-18.516v4.115H24.688V6.172ZM17.867,0c-3.031,0-4.8,3.577-5.523,5.143h5.5A2.575,2.575,0,1,0,17.867,0Zm-.819,3.725h-2.1c.76-1.153,1.48-2.022,2.409-2.022C18.561,1.7,18.619,3.725,17.048,3.725ZM6.846,5.143h5.5C11.626,3.577,9.853,0,6.821,0a2.575,2.575,0,1,0,.025,5.143ZM7.332,1.7c.929,0,1.649.869,2.409,2.022H7.64C6.069,3.725,6.127,1.7,7.332,1.7Z" transform="translate(-3161 4701.469)" fill="rgba(164,164,164,0.13)"/>
    </g>
    <g id="Group_95-4" data-name="Group 95" transform="translate(3827 -4699)">
      <g id="_35797-10" data-name="35797" transform="translate(-2983.863 4700.304)">
        <path id="Path_136-10" data-name="Path 136" d="M.645-1279.917a.922.922,0,0,0-.543.427c-.115.228-.107-.075-.107,4.626,0,4.735-.008,4.415.115,4.63.077.134,14.536,14.591,14.669,14.668a.867.867,0,0,0,.834,0c.142-.075,8.685-8.618,8.76-8.76a.867.867,0,0,0,0-.834c-.077-.134-14.534-14.593-14.668-14.669-.214-.122.109-.115-4.649-.113C1.707-1279.941.712-1279.936.645-1279.917Zm4.7,3.4a1.674,1.674,0,0,1,1.236.924,1.493,1.493,0,0,1,.166.731,1.6,1.6,0,0,1-.505,1.205,1.587,1.587,0,0,1-1.171.471,1.493,1.493,0,0,1-.731-.167,1.675,1.675,0,0,1-.763-2.269A1.711,1.711,0,0,1,4.7-1276.5,1.884,1.884,0,0,1,5.349-1276.517Z" transform="translate(0.006 1279.942)" fill="rgba(164,164,164,0.13)"/>
      </g>
      <g id="_35797-11" data-name="35797" transform="translate(-3053.607 4702.155)">
        <path id="Path_136-11" data-name="Path 136" d="M.645-1279.917a.922.922,0,0,0-.543.427c-.115.228-.107-.075-.107,4.626,0,4.735-.008,4.415.115,4.63.077.134,14.536,14.591,14.669,14.668a.867.867,0,0,0,.834,0c.142-.075,8.685-8.618,8.76-8.76a.867.867,0,0,0,0-.834c-.077-.134-14.534-14.593-14.668-14.669-.214-.122.109-.115-4.649-.113C1.707-1279.941.712-1279.936.645-1279.917Zm4.7,3.4a1.674,1.674,0,0,1,1.236.924,1.493,1.493,0,0,1,.166.731,1.6,1.6,0,0,1-.505,1.205,1.587,1.587,0,0,1-1.171.471,1.493,1.493,0,0,1-.731-.167,1.675,1.675,0,0,1-.763-2.269A1.711,1.711,0,0,1,4.7-1276.5,1.884,1.884,0,0,1,5.349-1276.517Z" transform="translate(0.006 1279.942)" fill="rgba(164,164,164,0.13)"/>
      </g>
      <g id="_35797-12" data-name="35797" transform="translate(-3125.202 4702.772)">
        <path id="Path_136-12" data-name="Path 136" d="M.645-1279.917a.922.922,0,0,0-.543.427c-.115.228-.107-.075-.107,4.626,0,4.735-.008,4.415.115,4.63.077.134,14.536,14.591,14.669,14.668a.867.867,0,0,0,.834,0c.142-.075,8.685-8.618,8.76-8.76a.867.867,0,0,0,0-.834c-.077-.134-14.534-14.593-14.668-14.669-.214-.122.109-.115-4.649-.113C1.707-1279.941.712-1279.936.645-1279.917Zm4.7,3.4a1.674,1.674,0,0,1,1.236.924,1.493,1.493,0,0,1,.166.731,1.6,1.6,0,0,1-.505,1.205,1.587,1.587,0,0,1-1.171.471,1.493,1.493,0,0,1-.731-.167,1.675,1.675,0,0,1-.763-2.269A1.711,1.711,0,0,1,4.7-1276.5,1.884,1.884,0,0,1,5.349-1276.517Z" transform="translate(0.006 1279.942)" fill="rgba(164,164,164,0.13)"/>
      </g>
      <path id="present-10" data-name="present" d="M11.315,24.688H2.057V12.344h9.258Zm0-18.516H0v4.115H11.315Zm2.057,18.516h9.258V12.344H13.373Zm0-18.516v4.115H24.688V6.172ZM17.867,0c-3.031,0-4.8,3.577-5.523,5.143h5.5A2.575,2.575,0,1,0,17.867,0Zm-.819,3.725h-2.1c.76-1.153,1.48-2.022,2.409-2.022C18.561,1.7,18.619,3.725,17.048,3.725ZM6.846,5.143h5.5C11.626,3.577,9.853,0,6.821,0a2.575,2.575,0,1,0,.025,5.143ZM7.332,1.7c.929,0,1.649.869,2.409,2.022H7.64C6.069,3.725,6.127,1.7,7.332,1.7Z" transform="translate(-3019.661 4699)" fill="rgba(164,164,164,0.13)"/>
      <path id="present-11" data-name="present" d="M11.315,24.688H2.057V12.344h9.258Zm0-18.516H0v4.115H11.315Zm2.057,18.516h9.258V12.344H13.373Zm0-18.516v4.115H24.688V6.172ZM17.867,0c-3.031,0-4.8,3.577-5.523,5.143h5.5A2.575,2.575,0,1,0,17.867,0Zm-.819,3.725h-2.1c.76-1.153,1.48-2.022,2.409-2.022C18.561,1.7,18.619,3.725,17.048,3.725ZM6.846,5.143h5.5C11.626,3.577,9.853,0,6.821,0a2.575,2.575,0,1,0,.025,5.143ZM7.332,1.7c.929,0,1.649.869,2.409,2.022H7.64C6.069,3.725,6.127,1.7,7.332,1.7Z" transform="translate(-3089.405 4700.852)" fill="rgba(164,164,164,0.13)"/>
      <path id="present-12" data-name="present" d="M11.315,24.688H2.057V12.344h9.258Zm0-18.516H0v4.115H11.315Zm2.057,18.516h9.258V12.344H13.373Zm0-18.516v4.115H24.688V6.172ZM17.867,0c-3.031,0-4.8,3.577-5.523,5.143h5.5A2.575,2.575,0,1,0,17.867,0Zm-.819,3.725h-2.1c.76-1.153,1.48-2.022,2.409-2.022C18.561,1.7,18.619,3.725,17.048,3.725ZM6.846,5.143h5.5C11.626,3.577,9.853,0,6.821,0a2.575,2.575,0,1,0,.025,5.143ZM7.332,1.7c.929,0,1.649.869,2.409,2.022H7.64C6.069,3.725,6.127,1.7,7.332,1.7Z" transform="translate(-3161 4701.469)" fill="rgba(164,164,164,0.13)"/>
    </g>
  </g>
</svg>
